<svg width="700" height="450" version="1.1" xmlns="http://www.w3.org/2000/svg"><g transform="translate(233.33333333333334,225)"><g class="arc"><path d="M1.0409497792752502e-14,-170A170,170 0 0,1 10.674388319983299,-169.66454383280617L0,0Z" id="arc-0" style="fill: #c2ddef;"></path><text transform="translate(2.6699145216409135,-84.95805763108719)" dy=".35em" style="text-anchor: middle;">1%</text></g><g class="arc"><path d="M10.674388319983299,-169.66454383280617A170,170 0 0,1 108.36207825727726,-130.98725127188416L0,0Z" id="arc-1" style="fill: #aed1ea;"></path><text transform="translate(31.290586978197638,-79.03100130050136)" dy=".35em" style="text-anchor: middle;">10%</text></g><g class="arc"><path d="M108.36207825727726,-130.98725127188416A170,170 0 0,1 -6.508566788175814e-14,170L0,0Z" id="arc-2" style="fill: #9ac6e5;"></path><text transform="translate(79.97486536110915,28.792723220849787)" dy=".35em" style="text-anchor: middle;">39%</text></g><g class="arc"><path d="M-6.508566788175814e-14,170A170,170 0 0,1 -161.6796077701761,52.53288904374108L0,0Z" id="arc-3" style="fill: #85bae0;"></path><text transform="translate(-49.96174644486021,68.76644452187054)" dy=".35em" style="text-anchor: middle;">20%</text></g><g class="arc"><path d="M-161.6796077701761,52.53288904374108A170,170 0 0,1 -170,2.0818995585505004e-14L0,0Z" id="arc-4" style="fill: #71afda;"></path><text transform="translate(-83.9535089505867,13.296929528419634)" dy=".35em" style="text-anchor: middle;">5%</text></g><g class="arc"><path d="M-170,2.0818995585505004e-14A170,170 0 0,1 -161.67960777017612,-52.53288904374104L0,0Z" id="arc-5" style="fill: #5da3d5;"></path><text transform="translate(-83.95350895058671,-13.296929528419613)" dy=".35em" style="text-anchor: middle;">5%</text></g><g class="arc"><path d="M-161.67960777017612,-52.53288904374104A170,170 0 0,1 -137.53288904374108,-99.92349288972042L0,0Z" id="arc-6" style="fill: #4998d0;"></path><text transform="translate(-75.73555455601127,-38.58919247786147)" dy=".35em" style="text-anchor: middle;">5%</text></g><g class="arc"><path d="M-137.53288904374108,-99.92349288972042A170,170 0 0,1 -99.92349288972045,-137.53288904374105L0,0Z" id="arc-7" style="fill: #348ccb;"></path><text transform="translate(-60.104076400856556,-60.104076400856535)" dy=".35em" style="text-anchor: middle;">5%</text></g><g class="arc"><path d="M-99.92349288972045,-137.53288904374105A170,170 0 0,1 -52.532889043741086,-161.6796077701761L0,0Z" id="arc-8" style="fill: #2f7eb6;"></path><text transform="translate(-38.58919247786149,-75.73555455601127)" dy=".35em" style="text-anchor: middle;">5%</text></g><g class="arc"><path d="M-52.532889043741086,-161.6796077701761A170,170 0 0,1 -3.122849337825751e-14,-170L0,0Z" id="arc-9" style="fill: #25628e;"></path><text transform="translate(-13.296929528419637,-83.9535089505867)" dy=".35em" style="text-anchor: middle;">5%</text></g><g class="legend" legend-id="0" transform="translate(-60,-70)"><rect x="350" width="18" height="18" style="fill: #c2ddef;"></rect><text x="350" y="9" dy=".35em" style="text-anchor: end;">Bills </text></g><g class="legend" legend-id="1" transform="translate(-60,-50)"><rect x="350" width="18" height="18" style="fill: #aed1ea;"></rect><text x="350" y="9" dy=".35em" style="text-anchor: end;">Groceries</text></g><g class="legend" legend-id="2" transform="translate(-60,-30)"><rect x="350" width="18" height="18" style="fill: #9ac6e5;"></rect><text x="350" y="9" dy=".35em" style="text-anchor: end;">Travel</text></g><g class="legend" legend-id="3" transform="translate(-60,-10)"><rect x="350" width="18" height="18" style="fill: #85bae0;"></rect><text x="350" y="9" dy=".35em" style="text-anchor: end;">Food &amp; Drinks</text></g><g class="legend" legend-id="4" transform="translate(-60,10)"><rect x="350" width="18" height="18" style="fill: #71afda;"></rect><text x="350" y="9" dy=".35em" style="text-anchor: end;">Miscellaneous</text></g><g class="legend" legend-id="5" transform="translate(-60,30)"><rect x="350" width="18" height="18" style="fill: #5da3d5;"></rect><text x="350" y="9" dy=".35em" style="text-anchor: end;">Investments</text></g><g class="legend" legend-id="6" transform="translate(-60,50)"><rect x="350" width="18" height="18" style="fill: #4998d0;"></rect><text x="350" y="9" dy=".35em" style="text-anchor: end;">Health</text></g><g class="legend" legend-id="7" transform="translate(-60,70)"><rect x="350" width="18" height="18" style="fill: #348ccb;"></rect><text x="350" y="9" dy=".35em" style="text-anchor: end;">Shopping</text></g><g class="legend" legend-id="8" transform="translate(-60,90)"><rect x="350" width="18" height="18" style="fill: #2f7eb6;"></rect><text x="350" y="9" dy=".35em" style="text-anchor: end;">Entertainment</text></g><g class="legend" legend-id="9" transform="translate(-60,110)"><rect x="350" width="18" height="18" style="fill: #25628e;"></rect><text x="350" y="9" dy=".35em" style="text-anchor: end;">Fuel</text></g></g></svg>